<svg class="svg-icon" style="width: 1.076171875em;height: 1em;vertical-align: middle;fill: currentColor;overflow: hidden;" viewBox="0 0 1102 1024" version="1.1" xmlns="http://www.w3.org/2000/svg"><path d="M39.384363 183.796844h71.233184a144.251793 144.251793 0 0 0 277.633503 0H1063.377799a39.384363 39.384363 0 0 0 0-78.768725H388.25105A144.251793 144.251793 0 0 0 110.617547 105.028119H39.384363a39.384363 39.384363 0 0 0 0 78.768725z m210.049935-105.024967A65.640605 65.640605 0 1 1 183.793694 144.412481 65.640605 65.640605 0 0 1 249.434298 78.771877z m813.943501 393.843629H685.760527a144.199281 144.199281 0 0 0-268.758892 0H39.384363a39.384363 39.384363 0 0 0 0 78.768726h370.213011a144.278049 144.278049 0 0 0 283.777463 0h370.213012a39.384363 39.384363 0 0 0-0.21005-78.768726zM551.381081 590.768595a65.640605 65.640605 0 1 1 65.640605-65.640605 65.640605 65.640605 0 0 1-65.640605 65.640605zM1063.377799 840.202893h-71.233185a144.251793 144.251793 0 0 0-277.633502 0H39.384363a39.384363 39.384363 0 0 0 0 78.768726h675.126749a144.251793 144.251793 0 0 0 277.633502 0H1063.377799a39.384363 39.384363 0 0 0 0-78.768726z m-210.049936 105.024968a65.640605 65.640605 0 1 1 65.640605-65.640605 65.640605 65.640605 0 0 1-65.640605 65.640605z"  /></svg>